<?xml version="1.0" standalone="no"?>
<!DOCTYPE svg PUBLIC "-//W3C//DTD SVG 20010904//EN"
 "http://www.w3.org/TR/2001/REC-SVG-20010904/DTD/svg10.dtd">
<svg version="1.0" xmlns="http://www.w3.org/2000/svg"
 width="800.000000pt" height="800.000000pt" viewBox="0 0 800.000000 800.000000"
 preserveAspectRatio="xMidYMid meet">
<metadata>
Created by potrace 1.16, written by Peter Selinger 2001-2019
</metadata>
<g transform="translate(0.000000,800.000000) scale(0.100000,-0.100000)"
fill="#000000" stroke="none">
<path d="M2942 7190 c-86 -53 -96 -119 -90 -602 l5 -378 -21 0 c-12 0 -43 11
-71 25 -27 13 -55 25 -62 25 -13 0 -93 102 -119 152 -24 47 -33 94 -43 248
-14 202 -30 351 -41 385 -12 36 -74 103 -108 116 -13 5 -41 9 -64 9 -32 0 -47
-7 -74 -34 -22 -22 -34 -44 -35 -62 0 -16 -3 -83 -6 -149 -3 -66 -5 -131 -4
-145 0 -14 1 -85 1 -157 -1 -88 5 -154 15 -195 32 -127 155 -336 227 -387 82
-57 251 -111 350 -111 53 0 58 -2 58 -22 1 -82 13 -242 22 -287 11 -60 46
-101 84 -101 30 0 93 55 110 96 7 17 18 71 24 120 15 127 33 206 47 211 6 3
37 -1 68 -7 56 -12 58 -12 197 22 49 11 138 103 182 188 51 99 85 280 93 499
3 72 0 142 -6 165 -6 23 -13 59 -16 80 -18 131 -97 264 -167 281 -38 10 -80
-14 -100 -55 -16 -32 -16 -56 -6 -280 14 -315 14 -315 -6 -445 -15 -97 -21
-114 -48 -142 -24 -25 -40 -32 -82 -35 -96 -8 -89 -38 -90 348 -1 314 -3 346
-24 432 -28 115 -53 167 -95 192 -40 25 -64 25 -105 0z"/>
<path d="M4862 7185 c-65 -54 -72 -117 -88 -757 l-7 -288 -52 0 c-70 0 -166
47 -205 102 -73 100 -91 176 -165 683 -20 139 -55 183 -119 153 -44 -22 -64
-52 -88 -136 -32 -113 -38 -167 -28 -260 26 -238 35 -282 88 -447 54 -168 55
-171 111 -226 75 -76 135 -98 319 -117 l142 -16 0 -71 c0 -133 42 -300 85
-335 8 -6 30 -10 51 -8 61 5 74 32 80 173 3 66 10 157 15 201 l11 82 81 6
c102 9 157 25 226 65 128 76 201 165 257 313 27 71 28 79 28 278 0 218 -1 229
-55 346 -30 68 -62 98 -119 115 -55 17 -86 5 -117 -43 l-28 -42 -1 -310 c-1
-341 -1 -347 -63 -425 -21 -27 -45 -43 -82 -54 -91 -30 -84 -51 -85 246 -2
355 -17 628 -39 696 -30 97 -92 128 -153 76z"/>
<path d="M3905 6116 c-36 -17 -77 -67 -106 -133 -26 -58 -28 -61 -76 -142 -21
-35 -63 -91 -93 -125 -30 -33 -75 -87 -99 -119 -25 -32 -61 -73 -82 -90 -49
-42 -317 -342 -356 -398 -17 -24 -52 -64 -78 -89 -26 -25 -70 -74 -98 -110
-28 -36 -85 -103 -127 -150 -135 -152 -254 -293 -315 -375 -33 -44 -85 -109
-116 -145 -94 -108 -140 -190 -211 -370 -36 -92 -88 -241 -88 -252 0 -5 11
-20 25 -33 30 -31 90 -33 144 -5 46 23 133 116 208 223 30 42 58 77 62 77 5 0
28 27 52 61 24 34 86 113 138 178 51 64 108 139 127 166 18 28 67 88 109 133
61 65 80 80 93 73 55 -29 320 -49 680 -50 l212 -1 0 -37 c0 -21 -9 -62 -20
-91 -11 -29 -20 -69 -20 -90 0 -20 -11 -82 -25 -137 -30 -119 -45 -251 -54
-475 l-6 -164 -100 -13 c-107 -13 -123 -11 -220 32 -27 12 -67 28 -88 35 -44
14 -103 87 -144 178 -22 49 -27 78 -34 202 -10 202 -23 263 -62 296 -25 21
-38 25 -66 20 -52 -8 -83 -35 -115 -101 -41 -84 -47 -219 -17 -394 30 -170 59
-250 119 -319 26 -31 64 -79 82 -105 34 -47 83 -80 160 -105 61 -20 259 -42
382 -42 111 0 118 -1 130 -22 9 -18 11 -114 9 -408 -8 -794 0 -1581 18 -1703
15 -104 31 -140 82 -176 72 -53 155 -37 193 38 20 37 25 85 37 341 6 124 15
302 21 395 13 211 13 261 7 835 -3 256 -3 519 0 585 l6 119 30 7 c17 4 107 13
200 19 159 10 298 35 350 62 25 14 95 84 121 123 21 31 59 123 87 210 24 74
40 338 26 422 -18 106 -51 168 -104 195 -27 14 -34 14 -68 1 -58 -24 -74 -65
-76 -195 0 -58 -5 -118 -11 -133 -5 -14 -10 -41 -10 -60 0 -42 -54 -251 -70
-270 -8 -10 -30 -15 -61 -15 -66 0 -202 -20 -214 -31 -5 -5 -51 -9 -102 -9
l-93 0 5 243 c3 133 8 260 10 282 6 58 -13 340 -26 402 -7 29 -10 55 -8 57 2
3 139 7 304 10 374 8 388 10 443 59 l23 21 60 -67 c33 -37 77 -90 96 -119 38
-54 102 -142 176 -237 23 -30 53 -71 67 -92 14 -20 70 -92 125 -160 180 -222
262 -289 356 -289 79 0 119 49 119 145 0 67 -23 118 -90 195 -26 30 -78 100
-116 155 -37 55 -89 125 -114 156 -25 31 -65 85 -90 120 -25 34 -85 111 -135
169 -83 99 -157 191 -302 380 -32 41 -83 102 -114 135 -102 110 -281 319 -328
383 -25 35 -93 122 -151 194 -58 72 -132 165 -165 207 -182 232 -231 280 -321
307 -57 17 -70 17 -109 0z m102 -589 c87 -36 169 -93 236 -167 23 -25 75 -79
114 -120 40 -41 73 -78 73 -82 0 -4 58 -77 128 -161 71 -84 136 -165 146 -179
l17 -26 -238 -7 c-131 -4 -362 -5 -513 -2 -273 5 -668 -5 -725 -18 l-30 -8 31
34 c51 56 236 298 294 384 29 44 72 101 94 126 23 25 54 66 71 90 16 24 49 72
73 107 l44 62 52 0 c36 0 77 -10 133 -33z"/>
<path d="M3435 2864 c-104 -35 -181 -161 -431 -703 -57 -123 -139 -290 -183
-370 -135 -249 -166 -342 -159 -476 3 -58 5 -61 39 -79 l36 -20 54 27 c30 15
66 38 81 51 47 42 135 180 211 332 40 82 135 263 210 402 76 138 137 254 137
256 0 3 13 33 29 68 16 35 46 117 67 183 30 94 38 137 38 197 1 71 -1 79 -28
107 -35 37 -54 42 -101 25z"/>
<path d="M4531 2796 c-32 -18 -39 -38 -40 -106 0 -37 8 -75 24 -115 32 -76 85
-209 139 -350 24 -60 69 -175 101 -255 32 -80 73 -187 91 -237 72 -200 134
-309 237 -415 80 -82 124 -104 171 -84 40 17 62 61 71 141 6 53 2 73 -30 165
-20 58 -49 137 -65 175 -16 39 -46 113 -66 165 -37 96 -137 324 -220 499 -77
162 -136 249 -232 344 -77 75 -94 87 -123 87 -19 -1 -45 -7 -58 -14z"/>
</g>
</svg>
